<?xml version="1.0" encoding="UTF-8" standalone="no"?>
<!-- Created with Inkscape (http://www.inkscape.org/) -->

<svg
   xmlns:dc="http://purl.org/dc/elements/1.1/"
   xmlns:cc="http://creativecommons.org/ns#"
   xmlns:rdf="http://www.w3.org/1999/02/22-rdf-syntax-ns#"
   xmlns:svg="http://www.w3.org/2000/svg"
   xmlns="http://www.w3.org/2000/svg"
   xmlns:sodipodi="http://sodipodi.sourceforge.net/DTD/sodipodi-0.dtd"
   xmlns:inkscape="http://www.inkscape.org/namespaces/inkscape"
   width="16"
   height="16"
   id="svg2"
   version="1.1"
   inkscape:version="0.48.4 r9939"
   sodipodi:docname="node_close.svg">
  <defs
     id="defs4" />
  <sodipodi:namedview
     id="base"
     pagecolor="#ffffff"
     bordercolor="#666666"
     borderopacity="1.0"
     inkscape:pageopacity="0.0"
     inkscape:pageshadow="2"
     inkscape:zoom="31.999998"
     inkscape:cx="8.7239334"
     inkscape:cy="5.7410462"
     inkscape:document-units="px"
     inkscape:current-layer="layer1"
     showgrid="true"
     inkscape:snap-global="true"
     inkscape:window-width="1680"
     inkscape:window-height="988"
     inkscape:window-x="-8"
     inkscape:window-y="-8"
     inkscape:window-maximized="1">
    <inkscape:grid
       type="xygrid"
       id="grid2985"
       empspacing="8"
       visible="true"
       enabled="true"
       snapvisiblegridlinesonly="true"
       originx="0px"
       originy="0px" />
  </sodipodi:namedview>
  <metadata
     id="metadata7">
    <rdf:RDF>
      <cc:Work
         rdf:about="">
        <dc:format>image/svg+xml</dc:format>
        <dc:type
           rdf:resource="http://purl.org/dc/dcmitype/StillImage" />
        <dc:title></dc:title>
      </cc:Work>
    </rdf:RDF>
  </metadata>
  <g
     inkscape:label="Ebene 1"
     inkscape:groupmode="layer"
     id="layer1"
     transform="translate(0,-1036.3622)">
    <path
       style="font-size:medium;font-style:normal;font-variant:normal;font-weight:normal;font-stretch:normal;text-indent:0;text-align:start;text-decoration:none;line-height:normal;letter-spacing:normal;word-spacing:normal;text-transform:none;direction:ltr;block-progression:tb;writing-mode:lr-tb;text-anchor:start;baseline-shift:baseline;color:#000000;fill:#000000;fill-opacity:1;stroke:none;stroke-width:4.50000000000000000;marker:none;visibility:visible;display:inline;overflow:visible;enable-background:accumulate;font-family:Sans;-inkscape-font-specification:Sans;fill-rule:nonzero"
       d="M 8 0.09375 C 3.6402897 0.09375 0.09375 3.6403 0.09375 8 C 0.09375 12.3597 3.6402897 15.90625 8 15.90625 C 12.35971 15.90625 15.90625 12.3597 15.90625 8 C 15.90625 3.6403 12.35971 0.09375 8 0.09375 z M 4.6875 3.875 A 0.99773423 0.99773423 0 0 1 4.78125 3.875 A 0.99773423 0.99773423 0 0 1 5.59375 4.1875 L 8 6.59375 L 10.40625 4.1875 A 0.99773423 0.99773423 0 0 1 11 3.875 A 0.99773423 0.99773423 0 0 1 11.8125 5.59375 L 9.40625 8 L 11.8125 10.375 A 0.99773423 0.99773423 0 1 1 10.40625 11.78125 L 8 9.375 L 5.59375 11.78125 A 0.99773423 0.99773423 0 1 1 4.1875 10.375 L 6.59375 8 L 4.1875 5.59375 A 0.99773423 0.99773423 0 0 1 4.6875 3.875 z "
       transform="translate(0,1036.3622)"
       id="path3768" />
  </g>
</svg>
